<svg width="646" height="646" viewBox="0 0 646 646" fill="none" xmlns="http://www.w3.org/2000/svg">
<rect width="645.333" height="645.333" fill="#DD7E43"/>
<g clip-path="url(#clip0_1948_11)">
<path d="M293.333 57.4666C234.933 64.2666 179.999 90.1332 137.466 131.2C55.0659 210.8 32.6659 333.867 81.9992 436.933C95.7325 465.733 109.333 485.067 131.999 508.533C154.666 531.867 177.599 548.533 206.933 562.667C297.999 606.667 404.799 595.467 485.999 533.467C497.999 524.4 521.866 500.667 531.333 488.667C587.199 417.2 603.733 326.267 576.399 240.667C570.666 222.667 557.466 194.667 547.333 179.067C502.933 110.667 430.933 66.2666 350.399 57.4666C335.466 55.7332 307.866 55.8666 293.333 57.4666ZM360.666 101.867C382.666 105.867 415.599 116.8 414.399 119.867C411.466 127.867 323.199 328 322.666 328C321.866 328 232.533 123.733 231.733 120C230.799 115.867 266.933 104.4 292.799 100.667C309.199 98.2666 343.733 98.9332 360.666 101.867ZM187.333 151.2C189.733 152.267 192.533 154.533 193.466 156.267C194.399 157.867 219.066 210.933 248.266 274L301.333 388.667H322.666H344.133L398.799 270C428.933 204.667 453.733 151.067 453.999 150.933C454.266 150.667 456.799 150.133 459.599 149.867C464.266 149.2 465.333 149.733 473.199 156.933C535.866 213.333 561.199 302.4 537.866 384.667C516.666 459.733 454.399 520.267 378.799 539.467C349.199 547.067 313.866 548.533 284.666 543.333C152.533 520.267 70.3992 388.133 107.999 259.2C115.199 234.267 127.333 210.133 143.599 188.267C151.599 177.467 178.799 149.333 181.333 149.333C182.133 149.333 184.799 150.133 187.333 151.2Z" fill="#F2EBD8"/>
</g>
<defs>
<clipPath id="clip0_1948_11">
<rect width="533.333" height="533.333" fill="white" transform="translate(56 56)"/>
</clipPath>
</defs>
</svg>
