<svg width="32" height="32" viewBox="0 0 32 32" fill="none" xmlns="http://www.w3.org/2000/svg">
<path d="M14.2387 0.0750738C10.7342 0.483298 7.43771 2.03615 4.88536 4.50151C-0.0593374 9.28013 -1.40353 16.6682 1.55689 22.8556C2.381 24.5845 3.19712 25.7452 4.55731 27.154C5.9175 28.5547 7.29369 29.5553 9.05394 30.4037C14.5187 33.0452 20.9276 32.3728 25.8003 28.6508C26.5204 28.1065 27.9526 26.6817 28.5207 25.9613C31.8731 21.6709 32.8653 16.2119 31.225 11.0731C30.881 9.99252 30.0889 8.3116 29.4808 7.37508C26.8164 3.26883 22.4958 0.603364 17.6631 0.0750738C16.767 -0.0289834 15.1108 -0.020979 14.2387 0.0750738ZM18.2792 2.74054C19.5994 2.98067 21.5757 3.63703 21.5037 3.82113C21.3277 4.3014 16.0309 16.316 15.9989 16.316C15.9509 16.316 10.5902 4.05326 10.5421 3.82914C10.4861 3.581 12.6544 2.89262 14.2067 2.6685C15.1908 2.52442 17.2631 2.56444 18.2792 2.74054ZM7.87778 5.70217C8.0218 5.7662 8.18982 5.90228 8.24583 6.00633C8.30183 6.10239 9.78204 9.28814 11.5343 13.0742L14.7187 19.958H15.9989H17.2871L20.5676 12.8341C22.3758 8.91193 23.864 5.69416 23.88 5.68616C23.896 5.67015 24.048 5.63813 24.2161 5.62212C24.4961 5.5821 24.5601 5.61412 25.0322 6.04635C28.7927 9.43222 30.3129 14.7792 28.9127 19.7179C27.6405 24.2243 23.904 27.8583 19.3674 29.011C17.5911 29.4672 15.4708 29.5553 13.7186 29.2431C5.78948 27.8583 0.860791 19.926 3.11711 12.1857C3.54917 10.6889 4.27727 9.24011 5.25341 7.92739C5.73347 7.27903 7.3657 5.5901 7.51772 5.5901C7.56573 5.5901 7.72575 5.63813 7.87778 5.70217Z" fill="white"/>
</svg>
